<svg xmlns="http://www.w3.org/2000/svg" viewBox="0 0 100 100">
  <path d="M50,5C25.2,5,5,25.2,5,50s20.2,45,45,45s45-20.2,45-45S74.8,5,50,5z M50,85c-19.3,0-35-15.7-35-35
    s15.7-35,35-35s35,15.7,35,35S69.3,85,50,85z" fill="#000"/>
  <path d="M65,35c-5.5-5.5-14.1-6.5-20.6-2.5c-6.5,4-9.1,12-6.4,19c1.9,5.5,7.2,9.5,13.1,9.9
    c5.9,0.4,11.6-2.7,14.4-7.9c0.9-1.8,0.2-4-1.6-4.9c-1.8-0.9-4-0.2-4.9,1.6c-1.4,2.6-4.2,4.1-7.1,3.9
    c-2.9-0.2-5.5-2.2-6.5-4.9c-1.3-3.5,0-7.5,3.2-9.5c3.2-2,7.5-1.5,10.2,1.2c1.4,1.4,3.7,1.4,5.1,0
    C66.4,38.7,66.4,36.4,65,35z" fill="#000"/>
</svg>